<svg xmlns="http://www.w3.org/2000/svg" width="960" height="540" viewBox="0 0 960 540">
<rect width="100%" height="100%" fill="#f8fafc"/>
<text x="480.0" y="36" text-anchor="middle" font-family="Arial" font-size="24" fill="#0f172a">OpenAI Medium Ablation: No-Overturn Accuracy</text>
<line x1="90" y1="420.0" x2="920" y2="420.0" stroke="#cbd5e1" stroke-width="1"/>
<text x="78" y="425.0" text-anchor="end" font-family="Arial" font-size="14" fill="#475569">0.0</text>
<line x1="90" y1="350.0" x2="920" y2="350.0" stroke="#cbd5e1" stroke-width="1"/>
<text x="78" y="355.0" text-anchor="end" font-family="Arial" font-size="14" fill="#475569">0.2</text>
<line x1="90" y1="280.0" x2="920" y2="280.0" stroke="#cbd5e1" stroke-width="1"/>
<text x="78" y="285.0" text-anchor="end" font-family="Arial" font-size="14" fill="#475569">0.4</text>
<line x1="90" y1="210.0" x2="920" y2="210.0" stroke="#cbd5e1" stroke-width="1"/>
<text x="78" y="215.0" text-anchor="end" font-family="Arial" font-size="14" fill="#475569">0.6</text>
<line x1="90" y1="140.0" x2="920" y2="140.0" stroke="#cbd5e1" stroke-width="1"/>
<text x="78" y="145.0" text-anchor="end" font-family="Arial" font-size="14" fill="#475569">0.8</text>
<line x1="90" y1="70.0" x2="920" y2="70.0" stroke="#cbd5e1" stroke-width="1"/>
<text x="78" y="75.0" text-anchor="end" font-family="Arial" font-size="14" fill="#475569">1.0</text>
<line x1="90" y1="70" x2="90" y2="420" stroke="#0f172a" stroke-width="2"/>
<line x1="90" y1="420" x2="920" y2="420" stroke="#0f172a" stroke-width="2"/>
<rect x="90.0" y="210.0" width="146.8" height="210.0" fill="#334155" rx="4"/>
<text x="163.4" y="200.0" text-anchor="middle" font-family="Arial" font-size="14" fill="#0f172a">0.60</text>
<text x="163.4" y="444" text-anchor="end" transform="rotate(-30 163.4 444)" font-family="Arial" font-size="14" fill="#334155">raw_history</text>
<rect x="260.8" y="280.0" width="146.8" height="140.0" fill="#0f766e" rx="4"/>
<text x="334.20000000000005" y="270.0" text-anchor="middle" font-family="Arial" font-size="14" fill="#0f172a">0.40</text>
<text x="334.20000000000005" y="444" text-anchor="end" transform="rotate(-30 334.20000000000005 444)" font-family="Arial" font-size="14" fill="#334155">running_summary</text>
<rect x="431.6" y="105.0" width="146.8" height="315.0" fill="#7c3aed" rx="4"/>
<text x="505.0" y="95.0" text-anchor="middle" font-family="Arial" font-size="14" fill="#0f172a">0.90</text>
<text x="505.0" y="444" text-anchor="end" transform="rotate(-30 505.0 444)" font-family="Arial" font-size="14" fill="#334155">source_no_revision</text>
<rect x="602.4000000000001" y="315.0" width="146.8" height="105.0" fill="#dc2626" rx="4"/>
<text x="675.8000000000001" y="305.0" text-anchor="middle" font-family="Arial" font-size="14" fill="#0f172a">0.30</text>
<text x="675.8000000000001" y="444" text-anchor="end" transform="rotate(-30 675.8000000000001 444)" font-family="Arial" font-size="14" fill="#334155">source_revision</text>
<rect x="773.2" y="140.0" width="146.8" height="280.0" fill="#2563eb" rx="4"/>
<text x="846.6" y="130.0" text-anchor="middle" font-family="Arial" font-size="14" fill="#0f172a">0.80</text>
<text x="846.6" y="444" text-anchor="end" transform="rotate(-30 846.6 444)" font-family="Arial" font-size="14" fill="#334155">structured_no_source</text>
<text x="35" y="245.0" text-anchor="middle" transform="rotate(-90 35 245.0)" font-family="Arial" font-size="16" fill="#0f172a">accuracy</text>
</svg>